<?xml version="1.0" encoding="UTF-8"?>
<svg width="58px" height="84px" viewBox="0 0 58 84" version="1.1" xmlns="http://www.w3.org/2000/svg" xmlns:xlink="http://www.w3.org/1999/xlink">
    <title>Artboard</title>
    <g id="Artboard" stroke="none" stroke-width="1" fill="none" fill-rule="evenodd">
        <path d="M27.6495804,66.6688313 C31.2835804,66.0908313 35.0185804,65.4958313 38.5555804,64.7378313 C37.9905804,66.4658313 37.1465804,68.1468313 35.9455804,69.7708313 C32.9755804,73.7858313 28.9135804,76.8938313 24.7515804,78.5958313 C22.3815804,79.5638313 20.0065804,80.0688313 17.8225804,80.0078313 C15.7595804,79.9508313 13.8625804,79.3908313 12.3135804,78.2458313 C10.9975804,77.2718313 9.89258043,75.8458313 9.10258043,73.9148313 C8.41758043,72.2398313 9.70158043,71.0388313 12.0815804,70.0658313 C15.7645804,68.5608313 21.5575804,67.6378313 27.6495804,66.6688313 Z M29.8815804,19.0228313 C35.9735804,18.0538313 41.7665804,17.1298313 45.4495804,15.6248313 C47.8295804,14.6528313 49.1125804,13.4508313 48.4285804,11.7768313 C47.6385804,9.84483133 46.5335804,8.41883133 45.2175804,7.44583133 C43.6675804,6.29983133 41.7715804,5.74083133 39.7085804,5.68383133 C37.5245804,5.62283133 35.1495804,6.12683133 32.7785804,7.09583133 C28.6165804,8.79683133 24.5555804,11.9058313 21.5855804,15.9198313 C20.3845804,17.5438313 19.5415804,19.2248313 18.9755804,20.9528313 C22.5125804,20.1958313 26.2475804,19.6008313 29.8815804,19.0228313 Z M17.0805804,53.1488313 C16.8725804,49.1358313 16.0335804,45.1168313 15.2095804,41.1678313 C14.2255804,36.4498313 13.2595804,31.8208313 13.2755804,27.2868313 C13.3225804,25.6598313 13.4805804,23.9848313 13.7515804,22.2608313 C14.3595804,19.1688313 15.6115804,16.1248313 17.8265804,13.1318313 C21.3105804,8.42283133 26.0945804,4.76783133 31.0105804,2.75783133 C33.9605804,1.55183133 36.9895804,0.92683133 39.8545804,1.00683133 C42.8415804,1.08983133 45.6445804,1.93883133 48.0065804,3.68583133 C49.9945804,5.15683133 51.6345804,7.24083133 52.7655804,10.0078313 C54.7675804,14.9038313 52.2465804,17.9068313 47.2175804,19.9628313 C43.0665804,21.6588313 36.9915804,22.6278313 30.6035804,23.6438313 C26.3625804,24.3188313 21.9735804,25.0178313 18.0495804,25.9438313 C17.7635804,30.5018313 18.7655804,35.3088313 19.7905804,40.2218313 C20.6575804,44.3808313 21.5415804,48.6118313 21.7635804,52.9088313 C21.9125804,55.7728313 21.1035804,57.6108313 19.6585804,58.6008313 C17.7075804,59.9368313 15.0555804,59.3908313 12.3225804,57.5468313 C10.1795804,56.0998313 7.83558043,53.7898313 5.79258043,51.0548313 C0.880580428,44.4838313 -2.44041957,35.2528313 2.27858043,28.8748313 C3.76758043,26.8628313 6.03958043,25.3038313 8.80558043,24.0558313 C9.42558043,23.7758313 10.0935804,23.8368313 10.6515804,24.2228313 C11.8975804,25.0838313 11.7125804,27.8078313 10.3365804,28.4608313 C8.46258043,29.3508313 6.97758043,30.3978313 6.03858043,31.6638313 C2.82658043,36.0038313 5.65758043,43.0498313 9.55058043,48.2588313 C11.2895804,50.5858313 13.2215804,52.5098313 14.9355804,53.6658313 C16.0585804,54.4248313 16.8505804,54.8528313 17.0145804,54.7418313 C17.1035804,54.6798313 17.1345804,54.1908313 17.0805804,53.1488313 Z M40.4505804,32.5418313 C40.3965804,31.4998313 40.4275804,31.0108313 40.5165804,30.9498313 C40.6805804,30.8378313 41.4725804,31.2668313 42.5955804,32.0248313 C44.3095804,33.1818313 46.2405804,35.1058313 47.9805804,37.4328313 C51.8735804,42.6408313 54.7045804,49.6868313 51.4925804,54.0278313 C50.5535804,55.2938313 49.0685804,56.3408313 47.1935804,57.2298313 C45.8185804,57.8828313 45.6335804,60.6068313 46.8785804,61.4688313 C47.4375804,61.8538313 48.1055804,61.9158313 48.7255804,61.6358313 C51.4915804,60.3878313 53.7635804,58.8278313 55.2515804,56.8158313 C59.9715804,50.4378313 56.6505804,41.2068313 51.7385804,34.6358313 C49.6945804,31.9018313 47.3515804,29.5908313 45.2095804,28.1448313 C42.4755804,26.2998313 39.8245804,25.7538313 37.8725804,27.0908313 C36.4275804,28.0798313 35.6185804,29.9178313 35.7675804,32.7828313 C35.9895804,37.0788313 36.8735804,41.3098313 37.7405804,45.4688313 C38.7655804,50.3828313 39.7675804,55.1888313 39.4805804,59.7478313 C35.5575804,60.6738313 31.1685804,61.3728313 26.9275804,62.0478313 C20.5395804,63.0628313 14.4645804,64.0318313 10.3135804,65.7278313 C5.28458043,67.7838313 2.76358043,70.7878313 4.76558043,75.6828313 C5.89658043,78.4508313 7.53758043,80.5348313 9.52458043,82.0048313 C11.8865804,83.7528313 14.6885804,84.6008313 17.6765804,84.6838313 C20.5415804,84.7638313 23.5705804,84.1388313 26.5205804,82.9328313 C31.4365804,80.9238313 36.2205804,77.2688313 39.7045804,72.5598313 C41.9195804,69.5658313 43.1705804,66.5218313 43.7795804,63.4308313 C44.0495804,61.7068313 44.2085804,60.0308313 44.2555804,58.4038313 C44.2715804,53.8698313 43.3045804,49.2408313 42.3205804,44.5228313 C41.4975804,40.5748313 40.6585804,36.5558313 40.4505804,32.5418313 L40.4505804,32.5418313 Z" id="Fill-5" fill="#E07157"></path>
    </g>
</svg>