<?xml version="1.0" encoding="UTF-8"?>
<svg width="92.6px" height="92.6px" viewBox="0 0 92.6 92.6" version="1.1" xmlns="http://www.w3.org/2000/svg" xmlns:xlink="http://www.w3.org/1999/xlink">
    <title>teach-for-america-vector-logo</title>
    <g id="Page-1" stroke="none" stroke-width="1" fill="none" fill-rule="evenodd">
        <g id="teach-for-america-vector-logo" fill-rule="nonzero">
            <path d="M46.3,92.6 C71.9,92.6 92.6,71.9 92.6,46.3 C92.6,20.7 71.9,0 46.3,0 C20.7,0 0,20.7 0,46.3 C0,71.9 20.7,92.6 46.3,92.6" id="Path" fill="#002D3D"></path>
            <path d="M32.4,39.9 L25.6,39.9 L25.6,55.8 L18.6,55.8 L18.6,39.9 L11.8,39.9 L11.8,35.3 L32.4,35.3 L32.4,39.9 Z M57.4,35.3 L57.4,40 L44.3,40 L44.3,43.9 L56.3,43.9 L56.3,48.5 L44.3,48.5 L44.3,55.9 L36.8,55.9 L36.8,35.3 L57.4,35.3 L57.4,35.3 Z M72.4,35.3 L64.4,35.3 L55.9,55.9 L63.6,55.9 L64.7,52.5 L72.2,52.5 L73.3,55.9 L81,55.9 L72.4,35.3 Z M66.1,47.9 L68.4,41 L70.7,47.9 L66.1,47.9 Z" id="Shape" fill="#FFFFFF"></path>
        </g>
    </g>
</svg>