<?xml version="1.0" encoding="UTF-8"?>
<svg width="71.0601212px" height="67.2681123px" viewBox="0 0 71.0601212 67.2681123" version="1.1" xmlns="http://www.w3.org/2000/svg" xmlns:xlink="http://www.w3.org/1999/xlink">
    <title>Mono Logo</title>
    <g id="Page-1" stroke="none" stroke-width="1" fill="none" fill-rule="evenodd">
        <g id="Mono-Logo">
            <path d="M9.45420294,16.5486062 C9.45420294,13.7136062 9.38530622,13.3146062 12.8143062,13.3146062 L28.9883062,13.3146062 L28.9883062,23.5806062 L12.8143062,23.5806062 C9.38530622,23.5806062 9.45420294,23.1826062 9.45420294,20.3466062 L9.45420294,16.5486062 Z M58.2468062,13.3142062 C61.6758062,13.3142062 61.6059139,13.7132062 61.6059139,16.5482062 L61.6059139,20.3462062 C61.6059139,23.1822062 61.6758062,23.5812062 58.2468062,23.5812062 L42.0728062,23.5812062 L42.0728062,13.3142062 L58.2468062,13.3142062 Z M9.24279851,46.8039062 C9.24279851,43.9689062 9.17290622,43.5699062 12.6019062,43.5699062 L28.9879062,43.5699062 L28.9879062,53.8369062 L12.6019062,53.8369062 C9.17290622,53.8369062 9.24279851,53.4379062 9.24279851,50.6019062 L9.24279851,46.8039062 Z M58.0354062,43.5700062 C61.4634062,43.5700062 61.3945096,43.9690062 61.3945096,46.8040062 L61.3945096,50.6020062 C61.3945096,53.4380062 61.4634062,53.8370062 58.0354062,53.8370062 L42.0734062,53.8370062 L42.0734062,43.5700062 L58.0354062,43.5700062 Z" id="Yellow-Threads" fill="#FDCF41" fill-rule="nonzero"></path>
            <path d="M0.00010288268,31.7351062 C0.00010288268,28.9001062 -0.068793783,28.5001062 3.35920622,28.5001062 L14.4762062,28.5001062 L14.4752062,38.7671062 L3.35920622,38.7671062 C-0.068793783,38.7671062 0.00010288268,38.3681062 0.00010288268,35.5341062 L0.00010288268,31.7351062 Z M27.5609062,38.7670062 L27.5609062,28.5000062 L43.4999062,28.5000062 L43.4999062,38.7670062 L27.5609062,38.7670062 Z M67.7009062,28.5002062 C71.1299062,28.5002062 71.0600139,28.8992062 71.0600139,31.7352062 L71.0600139,35.5332062 C71.0600139,38.3682062 71.1299062,38.7672062 67.7009062,38.7672062 L56.5849062,38.7672062 L56.5849062,28.5002062 L67.7009062,28.5002062 Z" id="Gray-Thread" fill="#939598"></path>
            <path d="M22.9177062,8.16380622 C25.7527062,8.16380622 26.1517062,8.09380622 26.1517062,11.5228062 L26.1517062,11.8758062 L15.8847062,11.8758062 L15.8847062,11.5228062 C15.8847062,8.09380622 16.2837062,8.16380622 19.1197062,8.16380622 L22.9177062,8.16380622 Z M15.8849062,42.1310062 L15.8849062,24.9900062 L26.1519062,24.9900062 L26.1519062,42.1310062 L15.8849062,42.1310062 Z M15.8850062,55.9167062 L15.8850062,55.2747062 L26.1520062,55.2747062 L26.1520062,55.9167062 C26.1520062,59.3447062 25.7530062,59.2757062 22.9180062,59.2757062 L19.1190062,59.2757062 C16.2840062,59.2757062 15.8850062,59.3447062 15.8850062,55.9167062 Z M51.9416062,8.16380622 C54.7766062,8.16380622 55.1756062,8.09380622 55.1756062,11.5228062 L55.1756062,11.8758062 L44.9086062,11.8758062 L44.9086062,11.5228062 C44.9086062,8.09380622 45.3076062,8.16380622 48.1436062,8.16380622 L51.9416062,8.16380622 Z M44.9089062,42.1310062 L44.9089062,24.9900062 L55.1759062,24.9900062 L55.1759062,42.1310062 L44.9089062,42.1310062 Z M44.9089062,55.9167062 L44.9089062,55.2747062 L55.1759062,55.2747062 L55.1759062,55.9167062 C55.1759062,59.3447062 54.7759062,59.2757062 51.9409062,59.2757062 L48.1429062,59.2757062 C45.3079062,59.2757062 44.9089062,59.3447062 44.9089062,55.9167062 Z M37.4294062,0.00010288268 C40.2644062,0.00010288268 40.6634062,-0.068793783 40.6634062,3.35920622 L40.6634062,27.0912062 L30.3964062,27.0912062 L30.3964062,3.35920622 C30.3964062,-0.068793783 30.7964062,0.00010288268 33.6314062,0.00010288268 L37.4294062,0.00010288268 Z M30.3967062,63.9079062 L30.3967062,40.1919062 L40.6637062,40.1919062 L40.6637062,63.9079062 C40.6637062,67.3369062 40.2657062,67.2680095 37.4297062,67.2680095 L33.6307062,67.2680095 C30.7957062,67.2680095 30.3967062,67.3369062 30.3967062,63.9079062 Z" id="Blue-Threads" fill="#228B9D" fill-rule="nonzero"></path>
        </g>
    </g>
</svg>