<svg width="38" height="38" viewBox="0 0 38 38" fill="none" xmlns="http://www.w3.org/2000/svg">
<g clip-path="url(#clip0_0_25)">
<rect width="38" height="38" fill="#05E5AF"/>
<g clip-path="url(#clip1_0_25)">
<path d="M18.9992 6.96667L7.6 17.1479V20.9587C8.44048 20.6714 9.34407 20.5134 10.286 20.5134C14.7648 20.5134 18.396 24.0517 18.396 28.416C18.396 29.3339 18.2338 30.2136 17.939 31.0333H27.7483C29.2128 31.0333 30.4 29.8765 30.4 28.4495V17.1487L18.9992 6.96667Z" fill="black"/>
<path d="M10.45 31.0333C12.024 31.0333 13.3 29.8211 13.3 28.3258C13.3 26.8305 12.024 25.6183 10.45 25.6183C8.87599 25.6183 7.6 26.8305 7.6 28.3258C7.6 29.8211 8.87599 31.0333 10.45 31.0333Z" fill="black"/>
</g>
</g>
<defs>
<clipPath id="clip0_0_25">
<path d="M0 12.8C0 8.31958 0 6.07937 0.871948 4.36808C1.63893 2.86278 2.86278 1.63893 4.36808 0.871948C6.07937 0 8.31958 0 12.8 0H25.2C29.6804 0 31.9206 0 33.6319 0.871948C35.1372 1.63893 36.3611 2.86278 37.1281 4.36808C38 6.07937 38 8.31958 38 12.8V25.2C38 29.6804 38 31.9206 37.1281 33.6319C36.3611 35.1372 35.1372 36.3611 33.6319 37.1281C31.9206 38 29.6804 38 25.2 38H12.8C8.31958 38 6.07937 38 4.36808 37.1281C2.86278 36.3611 1.63893 35.1372 0.871948 33.6319C0 31.9206 0 29.6804 0 25.2V12.8Z" fill="white"/>
</clipPath>
<clipPath id="clip1_0_25">
<rect width="22.8" height="24.0667" fill="white" transform="translate(7.6 6.96667)"/>
</clipPath>
</defs>
</svg>
